<?xml version="1.0" ?><!DOCTYPE svg  PUBLIC '-//W3C//DTD SVG 1.1//EN'  'http://www.w3.org/Graphics/SVG/1.1/DTD/svg11.dtd'><svg enable-background="new 0 0 100 100" height="100px" id="Layer_1" version="1.1" viewBox="0 0 100 100" width="100px" xml:space="preserve" xmlns="http://www.w3.org/2000/svg" xmlns:xlink="http://www.w3.org/1999/xlink"><g><g><g><g/></g><g/></g></g><g><path d="M62.998,60c-2.206,0-4-1.794-4-4s1.794-4,4-4c1.104,0,2-0.895,2-1.999L65,34   c0-0.016-0.004-0.03-0.005-0.046c-0.016-4.825-2.568-8.673-6.995-11.097V11h-0.002c0-6-5.589-9.992-13-9.992s-13,3.992-13,9.992H32   v11.855c-4.444,2.432-7.002,6.297-7.002,11.145H25l-0.002,15.999c0,0.53,0.21,1.04,0.585,1.415S26.467,52,26.998,52   c2.206,0,4,1.794,4,4s-1.794,4-4,4c-0.531,0-1.04,0.211-1.415,0.586s-0.586,0.885-0.585,1.415L25,90c0,3.309,2.691,6,5.998,6h28   C62.308,96,65,93.309,65,90l-0.002-28.001C64.998,60.895,64.102,60,62.998,60z M33.998,11c0-5,4.729-7.992,11-7.992   s11,2.992,11,7.992H56v10.923c-0.94-0.382-1.936-0.717-3-0.987V14h-5v-4h-0.002c0-1.657-1.343-3-3-3s-3,1.343-3,3   c0,0.007,0.002,0.013,0.002,0.02V14h-5v6.935c-1.064,0.271-2.06,0.605-3,0.987V11H33.998z M44.998,24   c7.371,0,15.206,2.396,15.929,9H29.069C29.792,26.396,37.627,24,44.998,24z M58.998,92h-28C29.896,92,29,91.103,29,90V63.747   c3-0.891,5.999-4.026,5.999-7.747S32,49.144,29,48.253V35h32v13.253c-3,0.89-6.001,4.026-6.001,7.747S58,62.857,61,63.747V90   C61,91.103,60.102,92,58.998,92z" fill="#231F20"/><rect fill="#231F20" height="2" width="14" x="38" y="52"/><rect fill="#231F20" height="2" width="14" x="38" y="58"/></g></svg>